<svg xmlns="http://www.w3.org/2000/svg" width="25" height="22" viewBox="0 0 25 22">
    <path fill="#2D2D2D" fill-rule="evenodd" d="M12.5-.012c-4.313 0-8.04 2.352-9.857 5.969a.295.295 0 0 0 .527.263C4.89 2.797 8.398.57 12.5.57c4.101 0 7.61 2.227 9.33 5.65a.295.295 0 0 0 .526-.263C20.54 2.34 16.813-.012 12.5-.012zm0 5.524A5.521 5.521 0 0 0 7.286 9.19a.29.29 0 1 0 .545.19A4.939 4.939 0 0 1 12.5 6.094a4.939 4.939 0 0 1 4.67 3.289.29.29 0 1 0 .544-.191A5.521 5.521 0 0 0 12.5 5.51zM1.744 11.326c-.713 0-1.207.328-1.453.79S0 13.125 0 13.642a.29.29 0 0 0 0 .01c0 2.16.943 4.138 2.725 5.559 1.783 1.42 4.391 2.289 7.74 2.289h4.07c3.349 0 5.957-.868 7.74-2.29C24.057 17.79 25 15.812 25 13.652a.29.29 0 0 0 0-.009c-.002-.517-.045-1.064-.29-1.526-.247-.462-.741-.79-1.454-.79a.29.29 0 0 0-.073.009l-4.651 1.162a.29.29 0 0 0-.018 0c-.913.304-1.363 1.142-1.363 2.026 0 1.001-.292 1.79-.827 2.335-.534.545-1.324.863-2.37.863h-2.908c-1.047 0-1.836-.318-2.37-.863-.535-.545-.827-1.334-.827-2.335 0-.884-.45-1.722-1.363-2.026a.29.29 0 0 0-.018 0l-4.651-1.162a.29.29 0 0 0-.073-.01zm-.018.581l4.578 1.145.019.009c.664.23.944.764.944 1.462 0 1.118.343 2.065 1 2.735.656.67 1.613 1.044 2.78 1.044h2.906c1.167 0 2.124-.375 2.78-1.044.657-.67 1-1.617 1-2.735 0-.698.28-1.232.944-1.462l.018-.01 4.579-1.144c.538.005.766.18.927.481.162.306.216.78.218 1.263 0 1.993-.852 3.786-2.508 5.106-1.655 1.32-4.127 2.162-7.376 2.162h-4.07c-3.249 0-5.721-.843-7.376-2.162C1.433 17.437.58 15.644.58 13.65c.002-.483.055-.957.218-1.263.16-.3.39-.476.927-.481z"/>
</svg>
