<svg xmlns="http://www.w3.org/2000/svg" width="264" height="89" viewBox="0 0 264 89">
    <g fill="none" fill-rule="evenodd">
        <path fill="#000" d="M0 43.711h25.463v26.053H0z"/>
        <path fill="#DCAC49" d="M25.463.29H67.9V43.71H25.463z"/>
        <path fill="#000" d="M91.954 69.965l1.242-26.249h5.833l7.184 13.041 7.29-13.04h5.78l1.242 26.248h-6.05l-.701-17.02-5.995 10.775h-3.295L98.544 53l-.757 16.965h-5.833M142.615 57.973l-1.89-.11a43.247 43.247 0 0 0-2.917-.11c-1.045 0-1.927.12-2.647.358-.72.24-1.305.553-1.755.94a3.39 3.39 0 0 0-.972 1.326 4.21 4.21 0 0 0-.297 1.575c0 1.18.386 2.091 1.161 2.735.774.645 1.827.967 3.16.967.864 0 1.664-.128 2.403-.387a6.62 6.62 0 0 0 1.944-1.05 5.101 5.101 0 0 0 1.323-1.547 3.84 3.84 0 0 0 .487-1.879v-2.818zm.162 11.992l-.162-2.432c-.685.848-1.729 1.603-3.133 2.266s-2.935.994-4.59.994c-1.046 0-2.099-.165-3.16-.497a8.33 8.33 0 0 1-2.863-1.547c-.846-.7-1.53-1.593-2.052-2.68-.523-1.087-.783-2.385-.783-3.896 0-2.984 1.017-5.286 3.051-6.908 2.034-1.62 4.761-2.431 8.183-2.431a56.634 56.634 0 0 1 3.348.11l1.999.111v-.608c0-1.326-.496-2.357-1.486-3.094-.99-.737-2.403-1.106-4.24-1.106-1.584 0-2.925.24-4.023.719-1.099.479-2.062.994-2.89 1.547l-2.916-4.42c.936-.737 2.268-1.465 3.997-2.183 1.728-.719 3.852-1.078 6.373-1.078 1.871 0 3.519.24 4.942.718 1.421.48 2.6 1.142 3.537 1.99a8.115 8.115 0 0 1 2.106 3.011c.468 1.16.703 2.423.703 3.786v17.628h-5.941zM173.561 49.518h-11.234v20.447h-6.373V43.716h17.607v5.802M203.373 43.716v26.249H197V59.52h-11.233v10.445h-6.374V43.716h6.374V53.94H197V43.716h6.373M216.822 43.716v17.241l12.26-17.24h5.616v26.248h-6.103V52.337L216.12 69.965h-5.4V43.716h6.103M248.957 69.965V49.518h-8.426v-5.802h23.224v5.802h-8.425v20.447h-6.373M92.596 84.502v1.976h1.208c.217 0 .403-.026.556-.077.154-.052.28-.123.378-.214a.825.825 0 0 0 .216-.323c.047-.125.07-.261.07-.41 0-.293-.1-.525-.302-.695-.201-.171-.508-.257-.918-.257h-1.208zm0-.593h.99c.212 0 .396-.023.552-.069.156-.046.285-.111.387-.195a.79.79 0 0 0 .229-.305c.05-.12.075-.252.075-.398 0-.336-.099-.582-.296-.738-.197-.156-.501-.234-.912-.234h-1.025v1.939zm-.818 3.235v-5.832h1.843c.355 0 .66.035.914.105.254.071.464.172.628.303.164.132.285.292.363.482.078.19.117.402.117.638 0 .14-.021.277-.065.408-.044.132-.11.254-.197.366a1.45 1.45 0 0 1-.33.305 1.762 1.762 0 0 1-.464.222c.41.084.72.237.931.461.211.224.316.514.316.872 0 .25-.045.476-.135.68-.09.205-.221.381-.393.527-.172.146-.383.26-.634.342-.25.08-.535.121-.856.121h-2.038zM98.75 84.974h2.078l-.862-2.297a3.57 3.57 0 0 1-.09-.254 5.782 5.782 0 0 1-.089-.315c-.03.114-.058.22-.087.317-.03.098-.059.183-.088.257l-.862 2.292zm3.73 2.17h-.635a.277.277 0 0 1-.278-.199l-.513-1.37h-2.53l-.513 1.37a.324.324 0 0 1-.101.138.267.267 0 0 1-.177.061h-.631l2.272-5.832h.83l2.277 5.832zM111.288 87.144h-7.143v-5.832h.822v5.174h2.328v-5.174h.823v5.174h2.344v-5.174h.826v5.832M121.065 87.144h-.823V81.97h-2.788v5.174h-.823v-5.832h4.434v5.832M124.259 84.32h.893c.215 0 .405-.03.57-.088.166-.058.305-.14.416-.244.111-.104.195-.23.252-.376.057-.146.086-.307.086-.483a1.36 1.36 0 0 0-.082-.486.941.941 0 0 0-.246-.364c-.11-.1-.248-.177-.413-.23a1.917 1.917 0 0 0-.583-.079h-.893v2.35zm0 .666v2.158h-.819v-5.832h1.712a3.1 3.1 0 0 1 .948.13c.269.086.491.21.668.368.176.158.307.349.395.573.087.223.131.472.131.746 0 .273-.046.523-.14.75a1.62 1.62 0 0 1-.408.587c-.18.165-.404.293-.67.384-.266.09-.574.136-.924.136h-.893zM133.646 84.226c0-.35-.046-.664-.139-.943a1.993 1.993 0 0 0-.4-.71 1.737 1.737 0 0 0-.625-.444 2.085 2.085 0 0 0-.818-.155 2.1 2.1 0 0 0-.82.155 1.733 1.733 0 0 0-.628.445c-.174.194-.308.43-.402.709-.094.28-.14.594-.14.943 0 .352.046.668.14.947.094.28.228.515.402.708.173.192.382.34.627.442.246.104.519.155.82.155.303 0 .575-.051.82-.155.243-.102.451-.25.625-.442.173-.193.306-.429.4-.708a3.01 3.01 0 0 0 .138-.947zm.838 0c0 .436-.068.837-.204 1.203-.137.366-.328.68-.574.943a2.572 2.572 0 0 1-.89.614c-.347.146-.731.22-1.152.22-.421 0-.805-.074-1.15-.22a2.626 2.626 0 0 1-1.47-1.557 3.413 3.413 0 0 1-.205-1.203c0-.433.068-.833.205-1.2a2.646 2.646 0 0 1 1.47-1.559 2.895 2.895 0 0 1 1.15-.22c.42 0 .805.073 1.152.221.347.148.644.353.89.616s.437.577.574.943c.136.366.204.766.204 1.2zM137.33 84.502v1.976h1.207c.217 0 .402-.026.556-.077.153-.052.28-.123.377-.214a.826.826 0 0 0 .217-.323c.046-.125.07-.261.07-.41 0-.293-.101-.525-.303-.695-.2-.171-.507-.257-.917-.257h-1.208zm0-.593h.988c.212 0 .396-.023.552-.069.157-.046.286-.111.388-.195a.788.788 0 0 0 .228-.305c.05-.12.076-.252.076-.398 0-.336-.1-.582-.296-.738-.198-.156-.502-.234-.912-.234h-1.025v1.939zm-.82 3.235v-5.832h1.844c.355 0 .66.035.913.105.255.071.464.172.628.303.164.132.286.292.364.482.078.19.117.402.117.638a1.22 1.22 0 0 1-.262.774 1.452 1.452 0 0 1-.33.305 1.758 1.758 0 0 1-.465.222c.41.084.721.237.932.461.21.224.316.514.316.872 0 .25-.045.476-.135.68-.09.205-.221.381-.394.527-.172.146-.383.26-.633.342-.25.08-.536.121-.857.121h-2.037zM143.483 84.974h2.077l-.862-2.297a5.554 5.554 0 0 1-.179-.569c-.029.114-.058.22-.087.317a3.02 3.02 0 0 1-.087.257l-.862 2.292zm3.73 2.17h-.636a.275.275 0 0 1-.176-.054.312.312 0 0 1-.102-.145l-.512-1.37h-2.53l-.513 1.37a.325.325 0 0 1-.102.138.268.268 0 0 1-.176.061h-.632l2.272-5.832h.83l2.277 5.832zM151.23 80.54a.918.918 0 0 0 .27-.035.375.375 0 0 0 .179-.114.487.487 0 0 0 .097-.21c.02-.086.03-.193.03-.32h.44c.053 0 .094.023.122.07.027.048.041.1.041.157 0 .271-.104.48-.313.626-.21.146-.498.22-.866.22-.369 0-.657-.074-.867-.22a.718.718 0 0 1-.313-.626c0-.057.014-.109.041-.156a.133.133 0 0 1 .121-.072h.441c0 .128.01.235.03.322.02.087.052.156.098.209.045.053.103.09.176.114a.914.914 0 0 0 .273.034zm1.322 1.036a.8.8 0 0 1 .153-.181.311.311 0 0 1 .213-.083h.612v5.832h-.823v-4.056c0-.12.003-.245.008-.376a4.28 4.28 0 0 1 .04-.42c-.048.13-.098.249-.151.357a4.682 4.682 0 0 1-.155.293l-2.594 3.938a.69.69 0 0 1-.151.181.318.318 0 0 1-.215.083h-.611v-5.832h.822v4.056c0 .12-.003.243-.008.372a4.891 4.891 0 0 1-.036.413c.045-.128.095-.245.15-.352.053-.107.106-.202.156-.286l2.59-3.94zM157.705 81.97a25.386 25.386 0 0 1-.135 1.71c-.058.491-.127.919-.205 1.282a6.166 6.166 0 0 1-.26.914c-.095.247-.199.45-.31.61h2.742V81.97h-1.832zm2.654-.658v5.174h.925v1.825a.235.235 0 0 1-.073.18.265.265 0 0 1-.189.068h-.488v-1.415h-4.53v1.167a.236.236 0 0 1-.073.18.266.266 0 0 1-.189.068h-.488v-2.073h.592a.809.809 0 0 0 .242-.197c.08-.091.156-.22.23-.388.075-.168.144-.38.209-.636.065-.257.124-.57.179-.94.054-.37.1-.802.139-1.298.038-.496.068-1.068.09-1.715h3.424zM166.663 81.312v.683h-2.705v1.877h2.181v.66h-2.181v1.93h2.71l-.005.682h-3.527v-5.832h3.527M169.492 84.32h.894c.214 0 .404-.03.57-.088.165-.058.304-.14.415-.244.111-.104.195-.23.252-.376.057-.146.086-.307.086-.483 0-.182-.027-.344-.082-.486a.941.941 0 0 0-.246-.364c-.11-.1-.248-.177-.413-.23a1.916 1.916 0 0 0-.582-.079h-.894v2.35zm0 .666v2.158h-.818v-5.832h1.712a3.1 3.1 0 0 1 .947.13c.269.086.492.21.668.368.176.158.308.349.395.573.087.223.131.472.131.746 0 .273-.046.523-.14.75a1.62 1.62 0 0 1-.408.587c-.18.165-.404.293-.67.384-.266.09-.574.136-.923.136h-.894zM178.208 84.502v1.976h1.207c.217 0 .403-.026.556-.077.154-.052.28-.123.378-.214a.826.826 0 0 0 .216-.323c.047-.125.07-.261.07-.41 0-.293-.1-.525-.302-.695-.201-.171-.507-.257-.918-.257h-1.207zm0-.593h.989c.212 0 .396-.023.552-.069.156-.046.285-.111.387-.195a.788.788 0 0 0 .229-.305c.05-.12.075-.252.075-.398 0-.336-.098-.582-.295-.738-.198-.156-.502-.234-.913-.234h-1.024v1.939zm-.819 3.235v-5.832h1.843c.356 0 .66.035.914.105.254.071.464.172.628.303.164.132.285.292.364.482.078.19.117.402.117.638 0 .14-.022.277-.066.408a1.215 1.215 0 0 1-.196.366 1.446 1.446 0 0 1-.33.305 1.758 1.758 0 0 1-.465.222c.41.084.72.237.931.461.211.224.317.514.317.872 0 .25-.046.476-.136.68-.09.205-.22.381-.393.527-.172.146-.383.26-.634.342-.25.08-.536.121-.856.121h-2.038zM190.451 85.909c.046 0 .085.017.12.053l.326.365c-.233.28-.517.496-.853.65-.335.155-.737.233-1.205.233-.413 0-.787-.074-1.123-.22a2.469 2.469 0 0 1-.858-.614 2.755 2.755 0 0 1-.548-.943 3.627 3.627 0 0 1-.193-1.207c0-.439.068-.842.203-1.207.135-.366.326-.68.572-.941.246-.262.54-.466.884-.612.343-.146.721-.22 1.134-.22.406 0 .765.068 1.079.204.314.135.587.316.82.54l-.27.39a.267.267 0 0 1-.065.068.182.182 0 0 1-.106.026c-.05 0-.11-.025-.176-.077a2.068 2.068 0 0 0-.677-.345 2.056 2.056 0 0 0-.609-.078 1.98 1.98 0 0 0-.788.155c-.24.103-.446.25-.618.443a2.024 2.024 0 0 0-.401.707c-.096.28-.143.595-.143.947 0 .358.05.677.149.957.099.28.235.517.409.71.173.192.378.339.613.44.236.102.49.153.76.153.166 0 .316-.01.448-.03.133-.02.255-.051.368-.092.112-.04.217-.094.316-.158.097-.065.196-.143.293-.232a.358.358 0 0 1 .066-.047.151.151 0 0 1 .073-.018M196.593 81.312v.703h-1.823v5.13h-.818v-5.13h-1.828v-.703h4.47M199.192 84.32h.893c.215 0 .405-.03.57-.088.166-.058.304-.14.415-.244.112-.104.196-.23.253-.376.057-.146.085-.307.085-.483 0-.182-.027-.344-.081-.486a.938.938 0 0 0-.246-.364c-.11-.1-.248-.177-.414-.23a1.917 1.917 0 0 0-.582-.079h-.893v2.35zm0 .666v2.158h-.819v-5.832h1.712c.363 0 .679.043.948.13.268.086.491.21.667.368.176.158.308.349.395.573.088.223.132.472.132.746 0 .273-.047.523-.14.75a1.617 1.617 0 0 1-.409.587c-.18.165-.403.293-.669.384-.266.09-.574.136-.924.136h-.893zM208.579 84.226c0-.35-.047-.664-.14-.943a1.989 1.989 0 0 0-.399-.71 1.739 1.739 0 0 0-.625-.444 2.085 2.085 0 0 0-.819-.155 2.1 2.1 0 0 0-.82.155 1.733 1.733 0 0 0-.628.445c-.173.194-.307.43-.401.709-.094.28-.141.594-.141.943 0 .352.047.668.141.947.094.28.228.515.401.708.174.192.383.34.628.442.245.104.518.155.82.155.302 0 .575-.051.819-.155.243-.102.452-.25.625-.442a1.97 1.97 0 0 0 .4-.708c.092-.28.139-.595.139-.947zm.838 0c0 .436-.068.837-.204 1.203-.137.366-.328.68-.575.943a2.578 2.578 0 0 1-.89.614c-.347.146-.73.22-1.152.22-.42 0-.804-.074-1.15-.22a2.624 2.624 0 0 1-1.47-1.557 3.419 3.419 0 0 1-.204-1.203c0-.433.068-.833.204-1.2.137-.365.33-.68.578-.942.25-.263.547-.468.892-.616a2.893 2.893 0 0 1 1.15-.221c.421 0 .805.073 1.153.221.346.148.643.353.89.616.246.263.437.577.574.943.136.366.204.766.204 1.2zM215.118 81.576a.813.813 0 0 1 .153-.181.311.311 0 0 1 .212-.083h.612v5.832h-.822v-4.056c0-.12.002-.245.008-.376.005-.132.018-.272.04-.42a4.54 4.54 0 0 1-.306.65l-2.595 3.938a.7.7 0 0 1-.15.181.318.318 0 0 1-.215.083h-.612v-5.832h.822v4.056c0 .12-.002.243-.007.372a5.124 5.124 0 0 1-.036.413 2.95 2.95 0 0 1 .149-.352c.054-.107.106-.202.157-.286l2.59-3.94M222.352 81.312v.703h-1.823v5.13h-.819v-5.13h-1.827v-.703h4.469M227.66 81.312v.683h-2.706v1.877h2.181v.66h-2.18v1.93h2.709l-.004.682h-3.528v-5.832h3.528M234.036 81.312v5.832h-.822V81.97h-1.832a30.174 30.174 0 0 1-.15 1.941c-.065.549-.14 1.017-.23 1.405a4.87 4.87 0 0 1-.303.949 2.058 2.058 0 0 1-.374.574c-.135.139-.28.234-.437.285-.156.051-.32.077-.492.077-.151 0-.266-.014-.346-.042-.08-.029-.119-.07-.119-.124v-.533h.282c.103 0 .206-.02.308-.06.102-.041.2-.124.296-.249.095-.124.185-.303.27-.536.085-.233.162-.542.232-.927s.13-.856.18-1.414c.048-.559.086-1.226.113-2.004h3.424M237.23 84.47v2.008h1.077c.216 0 .401-.025.554-.075.152-.05.276-.12.373-.21a.803.803 0 0 0 .212-.319c.045-.123.068-.26.068-.408 0-.157-.022-.297-.065-.42a.742.742 0 0 0-.211-.314.963.963 0 0 0-.373-.195 1.987 1.987 0 0 0-.555-.067h-1.08zm0-3.158v2.491h1.08c.35 0 .652.04.906.118.254.079.464.188.628.33.164.14.285.308.363.501.078.194.117.405.117.633 0 .268-.045.51-.135.727-.09.217-.22.402-.393.555a1.78 1.78 0 0 1-.634.353 2.73 2.73 0 0 1-.855.124h-1.896v-5.832h.819zM246.196 85.909c.045 0 .085.017.12.053l.325.365a2.41 2.41 0 0 1-.852.65c-.335.155-.737.233-1.206.233-.413 0-.787-.074-1.122-.22a2.467 2.467 0 0 1-.858-.614 2.754 2.754 0 0 1-.548-.943 3.627 3.627 0 0 1-.193-1.207c0-.439.068-.842.202-1.207.136-.366.326-.68.573-.941.246-.262.54-.466.884-.612.343-.146.72-.22 1.134-.22.405 0 .765.068 1.078.204.314.135.587.316.82.54l-.27.39a.268.268 0 0 1-.065.068.182.182 0 0 1-.105.026c-.05 0-.11-.025-.177-.077a2.064 2.064 0 0 0-.677-.345 2.055 2.055 0 0 0-.608-.078c-.286 0-.55.052-.789.155-.24.103-.445.25-.618.443a2.033 2.033 0 0 0-.4.707c-.096.28-.144.595-.144.947 0 .358.05.677.15.957.098.28.235.517.408.71.174.192.378.339.614.44.236.102.489.153.76.153.166 0 .316-.01.448-.03a1.97 1.97 0 0 0 .367-.092c.113-.04.218-.094.316-.158.098-.065.196-.143.294-.232a.356.356 0 0 1 .066-.047.152.152 0 0 1 .073-.018M252.338 81.312v.703h-1.824v5.13h-.818v-5.13h-1.828v-.703h4.47M254.936 84.502v1.976h1.208c.217 0 .402-.026.556-.077.153-.052.28-.123.377-.214a.826.826 0 0 0 .217-.323c.046-.125.07-.261.07-.41 0-.293-.101-.525-.303-.695-.201-.171-.507-.257-.917-.257h-1.208zm0-.593h.99c.211 0 .395-.023.552-.069.156-.046.285-.111.387-.195a.79.79 0 0 0 .228-.305c.05-.12.076-.252.076-.398 0-.336-.099-.582-.296-.738-.198-.156-.502-.234-.912-.234h-1.025v1.939zm-.818 3.235v-5.832h1.843c.355 0 .66.035.914.105.254.071.463.172.627.303.164.132.286.292.364.482.078.19.117.402.117.638 0 .14-.022.277-.065.408-.044.132-.11.254-.197.366a1.44 1.44 0 0 1-.33.305 1.752 1.752 0 0 1-.465.222c.41.084.721.237.932.461.21.224.316.514.316.872 0 .25-.045.476-.135.68-.09.205-.222.381-.393.527-.173.146-.384.26-.634.342-.25.08-.536.121-.856.121h-2.038zM263.752 81.312v.683h-2.706v1.877h2.181v.66h-2.181v1.93h2.71l-.004.682h-3.528v-5.832h3.528"/>
    </g>
</svg>
