<svg xmlns="http://www.w3.org/2000/svg" width="25" height="25" viewBox="0 0 25 25">
    <path fill="#2D2D2D" fill-rule="evenodd" d="M12.5.5C8.803.5 5.814 3.642 5.814 6.986c0 1.034.176 2.899 1.662 4.57l-4.351 1.162a.297.297 0 0 0-.209.2L0 24.047c0 .197.15.29.29.29l6.105-1.444 5.978 1.417a.47.47 0 0 0 .127.027.466.466 0 0 0 .127-.027l5.978-1.417 6.104 1.444c.141 0 .291-.093.291-.29l-2.916-11.129a.296.296 0 0 0-.209-.2l-4.351-1.162c1.486-1.671 1.662-3.536 1.662-4.57C19.186 3.642 16.197.5 12.5.5zm0 .581c3.365 0 6.105 2.911 6.105 5.905 0 1.271-.191 3.712-3.062 5.487a.292.292 0 0 0-.1.1L12.5 17.651l-2.943-5.078a.292.292 0 0 0-.1-.1c-2.87-1.775-3.062-4.216-3.062-5.487 0-2.994 2.74-5.905 6.105-5.905zm0 2.617a3.484 3.484 0 0 0-3.48 3.488 3.484 3.484 0 0 0 3.48 3.488 3.484 3.484 0 0 0 3.48-3.488 3.484 3.484 0 0 0-3.48-3.488zm0 .581a2.893 2.893 0 0 1 2.898 2.907 2.893 2.893 0 0 1-2.898 2.907 2.893 2.893 0 0 1-2.898-2.907A2.893 2.893 0 0 1 12.5 4.279zm-4.66 7.922l.4.09c.254.212.525.422.835.618l3.134 5.405v5.36l-5.496-1.308L7.84 12.2zm9.32 0l1.127 10.165-5.496 1.308v-5.36l3.134-5.405c.31-.196.581-.406.836-.618l.4-.09zm-9.91.018L6.131 22.348.699 23.647l2.735-10.41 3.815-1.018zm10.5 0l3.816 1.017 2.735 10.41-5.433-1.298-1.117-10.13z"/>
</svg>
