<svg xmlns="http://www.w3.org/2000/svg" xmlns:xlink="http://www.w3.org/1999/xlink" width="182" height="63" viewBox="0 0 182 63">
    <defs>
        <path id="a" d="M16.02 17.42V.064H.074v17.354h15.948z"/>
        <path id="c" d="M.271 4.87h4.135V.084H.271z"/>
    </defs>
    <g fill="none" fill-rule="evenodd">
        <path fill="#E8B537" d="M17.485 28.71h29.141V0h-29.14z"/>
        <path fill="#FEFEFE" d="M0 45.935h17.485V28.71H0zM63.143 46.068l.852-17.355H68l4.932 8.622 5.007-8.622h3.968l.853 17.355h-4.153l-.483-11.253-4.116 7.124h-2.263l-4.079-7.088-.52 11.217zM97.93 38.139l-1.298-.073a30.993 30.993 0 0 0-2.002-.073c-.718 0-1.324.08-1.818.238-.494.158-.897.365-1.205.62-.31.257-.532.55-.668.878a2.687 2.687 0 0 0-.203 1.041c0 .78.264 1.383.797 1.809.53.426 1.255.64 2.17.64.592 0 1.143-.086 1.65-.257.506-.17.95-.401 1.334-.694.384-.292.687-.633.91-1.023.221-.39.333-.804.333-1.243V38.14zm.112 7.929l-.112-1.608c-.47.56-1.186 1.06-2.15 1.498-.965.439-2.016.658-3.153.658-.717 0-1.441-.11-2.17-.329a5.815 5.815 0 0 1-1.966-1.023 5.183 5.183 0 0 1-1.409-1.771c-.358-.719-.538-1.578-.538-2.577 0-1.974.699-3.495 2.097-4.567 1.396-1.071 3.269-1.608 5.618-1.608.296 0 .654.006 1.075.019.42.012.828.03 1.224.055l1.372.073v-.402c0-.878-.34-1.56-1.02-2.046-.68-.487-1.65-.73-2.91-.73-1.09 0-2.01.157-2.764.473-.754.317-1.415.658-1.984 1.024l-2.002-2.923c.641-.487 1.556-.969 2.744-1.443 1.186-.475 2.646-.713 4.377-.713 1.284 0 2.416.16 3.392.475.977.317 1.786.755 2.43 1.315a5.366 5.366 0 0 1 1.446 1.992c.32.767.482 1.602.482 2.502v11.656h-4.08zM119.18 32.549h-7.714v13.52h-4.377V28.712h12.09zM139.65 28.713v17.355h-4.375v-6.905h-7.714v6.905h-4.376V28.713h4.376v6.758h7.714v-6.758zM148.886 28.713v11.4l8.418-11.4h3.857v17.355h-4.19V34.412l-8.568 11.656h-3.708V28.713z"/>
        <g transform="translate(165.094 28.649)">
            <mask id="b" fill="#fff">
                <use xlink:href="#a"/>
            </mask>
            <path fill="#FEFEFE" d="M5.858 17.42V3.9H.073V.065h15.948V3.9h-5.787v13.52z" mask="url(#b)"/>
        </g>
        <path fill="#E8B537" d="M63.582 55.676v1.303h.828c.15 0 .277-.016.382-.05a.693.693 0 0 0 .26-.142.542.542 0 0 0 .147-.213.749.749 0 0 0 .048-.27.562.562 0 0 0-.207-.459c-.138-.114-.349-.17-.63-.17h-.828zm0-.392h.678c.146 0 .272-.016.379-.046a.76.76 0 0 0 .266-.129.525.525 0 0 0 .157-.2.66.66 0 0 0 .052-.264c0-.222-.069-.385-.204-.486-.136-.104-.344-.156-.625-.156h-.703v1.281zm-.561 2.136v-3.851h1.264c.244 0 .452.023.627.07.174.046.318.114.43.2a.776.776 0 0 1 .25.318c.053.125.08.265.08.42a.81.81 0 0 1-.18.511c-.06.075-.136.142-.226.203-.09.06-.197.108-.319.146.282.055.494.157.64.305.143.147.215.34.215.574 0 .165-.03.316-.092.45a.937.937 0 0 1-.27.348 1.283 1.283 0 0 1-.435.225c-.171.054-.367.08-.587.08h-1.397zM67.802 55.987h1.423l-.59-1.516a3.373 3.373 0 0 1-.123-.377c-.02.076-.04.146-.06.21-.02.065-.04.121-.06.17l-.59 1.513zm2.557 1.433h-.436a.196.196 0 0 1-.12-.036.202.202 0 0 1-.07-.095l-.352-.906h-1.735l-.35.906a.218.218 0 0 1-.071.09.185.185 0 0 1-.121.04h-.434l1.558-3.85h.57l1.56 3.85zM76.399 57.42H71.5v-3.851h.565v3.416h1.595v-3.416h.565v3.416h1.607v-3.416h.567zM83.103 57.42h-.565v-3.417h-1.912v3.417h-.564v-3.851h3.04zM85.291 55.555h.613c.147 0 .278-.02.392-.058a.799.799 0 0 0 .285-.161.678.678 0 0 0 .173-.248.854.854 0 0 0 .057-.32.847.847 0 0 0-.055-.32.629.629 0 0 0-.168-.24.781.781 0 0 0-.284-.152 1.375 1.375 0 0 0-.4-.053h-.613v1.552zm0 .44v1.425h-.561v-3.851h1.174c.25 0 .466.029.65.086.185.057.337.138.458.244.12.104.21.229.27.377.06.148.09.312.09.492s-.031.347-.095.496c-.064.149-.157.278-.28.388-.124.109-.276.193-.459.253s-.393.09-.634.09h-.613zM91.728 55.492a1.9 1.9 0 0 0-.096-.621 1.304 1.304 0 0 0-.273-.468 1.196 1.196 0 0 0-.429-.295 1.499 1.499 0 0 0-.561-.102c-.207 0-.395.035-.563.102-.168.068-.311.166-.43.295-.119.127-.211.284-.276.468a1.9 1.9 0 0 0-.096.621c0 .234.032.442.096.626.065.185.157.34.275.468.12.126.263.224.43.292.17.068.357.101.564.101.206 0 .394-.033.561-.1.166-.07.31-.167.43-.293.118-.128.209-.283.272-.468.064-.184.096-.392.096-.626m.575 0c0 .289-.047.555-.14.796a1.83 1.83 0 0 1-.394.622c-.17.174-.372.308-.61.406a2.09 2.09 0 0 1-.79.144c-.289 0-.552-.048-.789-.144a1.8 1.8 0 0 1-.612-.406 1.805 1.805 0 0 1-.396-.622 2.186 2.186 0 0 1-.14-.796c0-.285.047-.549.14-.79.094-.242.226-.45.396-.623.171-.174.375-.31.612-.407.237-.097.5-.146.789-.146.288 0 .552.05.79.146.238.098.44.233.61.407.168.174.3.381.394.622.093.242.14.506.14.791M94.253 55.676v1.303h.829c.149 0 .276-.016.38-.05a.691.691 0 0 0 .26-.142.54.54 0 0 0 .148-.213.738.738 0 0 0 .048-.27.561.561 0 0 0-.207-.459c-.138-.114-.348-.17-.63-.17h-.828zm0-.392h.678c.146 0 .273-.016.38-.046a.763.763 0 0 0 .266-.129.519.519 0 0 0 .156-.2.652.652 0 0 0 .052-.264c0-.222-.068-.385-.204-.486-.135-.104-.344-.156-.624-.156h-.704v1.281zm-.56 2.136v-3.851h1.264c.243 0 .451.023.626.07.175.046.318.114.43.2a.776.776 0 0 1 .25.318c.053.125.08.265.08.42a.85.85 0 0 1-.044.271.81.81 0 0 1-.136.24.992.992 0 0 1-.226.203c-.09.06-.196.108-.318.146.28.055.494.157.639.305.144.147.216.34.216.574 0 .165-.031.316-.092.45a.947.947 0 0 1-.27.348 1.283 1.283 0 0 1-.435.225c-.172.054-.367.08-.587.08h-1.398zM98.473 55.987h1.424l-.59-1.516c-.02-.05-.041-.104-.062-.168a4.766 4.766 0 0 1-.062-.209c-.02.076-.04.146-.059.21-.02.065-.04.121-.06.17l-.59 1.513zm2.558 1.433h-.436a.193.193 0 0 1-.19-.131l-.353-.906h-1.735l-.35.906a.223.223 0 0 1-.07.09.184.184 0 0 1-.121.04h-.434l1.558-3.85h.57l1.56 3.85zM103.784 53.06a.648.648 0 0 0 .186-.024.254.254 0 0 0 .123-.075.301.301 0 0 0 .066-.138.953.953 0 0 0 .02-.212h.303c.036 0 .063.016.083.047.02.031.028.065.028.103a.468.468 0 0 1-.215.413c-.143.098-.34.146-.594.146-.251 0-.449-.048-.592-.146a.469.469 0 0 1-.216-.413c0-.038.01-.072.029-.103a.09.09 0 0 1 .083-.047h.301c0 .084.007.155.021.212a.313.313 0 0 0 .067.138c.03.035.072.06.12.075.05.016.114.024.187.024zm.907.683a.569.569 0 0 1 .106-.12.222.222 0 0 1 .146-.054h.419v3.85h-.563v-2.678c0-.078 0-.161.005-.247.003-.087.012-.18.026-.278a2.405 2.405 0 0 1-.21.43l-1.778 2.599a.436.436 0 0 1-.104.12.22.22 0 0 1-.146.055h-.42v-3.851h.564v2.678c0 .079-.002.16-.006.246a2.976 2.976 0 0 1-.024.272 2.178 2.178 0 0 1 .21-.421l1.775-2.6z"/>
        <g transform="translate(106.273 53.484)">
            <mask id="d" fill="#fff">
                <use xlink:href="#c"/>
            </mask>
            <path fill="#E8B537" d="M1.95.52c-.02.427-.051.803-.092 1.128-.04.324-.086.607-.14.847-.053.24-.113.44-.178.603a1.91 1.91 0 0 1-.213.403h1.88V.519H1.951zM3.77.083v3.417h.636v1.205a.153.153 0 0 1-.05.118.19.19 0 0 1-.13.046H3.89v-.934H.786v.77a.153.153 0 0 1-.05.118.188.188 0 0 1-.13.046H.27V3.5h.406a.544.544 0 0 0 .166-.13A.987.987 0 0 0 1 3.116a2.57 2.57 0 0 0 .143-.42c.044-.17.085-.376.122-.62.037-.245.07-.531.096-.858.025-.328.046-.705.061-1.133h2.348z" mask="url(#d)"/>
        </g>
        <path fill="#E8B537" d="M114.367 53.569v.45h-1.855v1.24h1.495v.435h-1.495v1.275h1.857l-.002.45h-2.42v-3.85zM116.305 55.555h.613c.147 0 .278-.02.392-.058a.794.794 0 0 0 .284-.161.667.667 0 0 0 .173-.248.854.854 0 0 0 .058-.32.857.857 0 0 0-.055-.32.625.625 0 0 0-.169-.24.78.78 0 0 0-.283-.152 1.38 1.38 0 0 0-.4-.053h-.613v1.552zm0 .44v1.425h-.561v-3.851h1.174c.25 0 .466.029.65.086.185.057.337.138.458.244.12.104.21.229.27.377.061.148.09.312.09.492s-.031.347-.095.496c-.063.149-.157.278-.28.388-.124.109-.276.193-.459.253s-.393.09-.634.09h-.613zM122.28 55.676v1.303h.83c.149 0 .276-.016.38-.05a.693.693 0 0 0 .26-.142.542.542 0 0 0 .148-.213.738.738 0 0 0 .048-.27.561.561 0 0 0-.207-.459c-.138-.114-.349-.17-.63-.17h-.828zm0-.392h.68c.145 0 .271-.016.378-.046a.765.765 0 0 0 .266-.129.52.52 0 0 0 .157-.2.66.66 0 0 0 .052-.264c0-.222-.069-.385-.204-.486-.136-.104-.344-.156-.624-.156h-.704v1.281zm-.56 2.136v-3.851h1.265c.243 0 .451.023.626.07.174.046.318.114.43.2a.779.779 0 0 1 .25.318c.053.125.08.265.08.42a.798.798 0 0 1-.18.511c-.06.075-.136.142-.226.203-.09.06-.197.108-.318.146.28.055.494.157.638.305.145.147.216.34.216.574 0 .165-.03.316-.092.45a.94.94 0 0 1-.27.348 1.287 1.287 0 0 1-.434.225c-.172.054-.368.08-.588.08h-1.397zM130.677 56.604c.031 0 .058.012.081.034l.224.242c-.16.185-.355.328-.584.43-.23.102-.506.153-.827.153-.284 0-.54-.049-.769-.145a1.684 1.684 0 0 1-.588-.405 1.81 1.81 0 0 1-.377-.624 2.317 2.317 0 0 1-.132-.796c0-.29.047-.556.14-.797.092-.242.223-.448.392-.62.168-.173.37-.309.605-.405.235-.097.495-.145.778-.145.278 0 .525.045.74.135.215.09.402.208.562.356l-.185.258a.172.172 0 0 1-.045.044.128.128 0 0 1-.072.018.206.206 0 0 1-.121-.052 1.769 1.769 0 0 0-.183-.113 1.348 1.348 0 0 0-.282-.115 1.474 1.474 0 0 0-.417-.051c-.196 0-.376.034-.54.102a1.21 1.21 0 0 0-.424.293c-.118.127-.21.282-.276.467a1.871 1.871 0 0 0-.097.625c0 .236.034.447.102.632.068.185.162.342.281.469.118.126.258.224.42.29.162.068.335.1.52.1.115 0 .218-.006.308-.02.092-.012.175-.033.252-.06a.993.993 0 0 0 .217-.104c.067-.043.135-.094.202-.153a.22.22 0 0 1 .044-.031.117.117 0 0 1 .051-.012M134.888 53.569v.464h-1.25v3.387h-.56v-3.387h-1.253v-.464zM136.67 55.555h.613c.146 0 .277-.02.391-.058a.796.796 0 0 0 .284-.161.674.674 0 0 0 .174-.248.854.854 0 0 0 .058-.32.857.857 0 0 0-.056-.32.625.625 0 0 0-.169-.24.775.775 0 0 0-.283-.152 1.377 1.377 0 0 0-.4-.053h-.613v1.552zm0 .44v1.425h-.562v-3.851h1.175c.249 0 .465.029.65.086.184.057.336.138.457.244.12.104.21.229.27.377.061.148.09.312.09.492s-.031.347-.095.496c-.063.149-.157.278-.28.388-.124.109-.276.193-.459.253a2.05 2.05 0 0 1-.633.09h-.614zM143.106 55.492a1.9 1.9 0 0 0-.095-.621 1.304 1.304 0 0 0-.274-.468 1.196 1.196 0 0 0-.429-.295 1.498 1.498 0 0 0-.56-.102 1.51 1.51 0 0 0-.564.102c-.168.068-.311.166-.43.295-.119.127-.211.284-.276.468a1.899 1.899 0 0 0-.096.621c0 .234.033.442.096.626.065.185.157.34.275.468.12.126.263.224.43.292.17.068.357.101.564.101.206 0 .394-.033.561-.1.166-.07.31-.167.43-.293.118-.128.209-.283.273-.468.063-.184.095-.392.095-.626m.574 0c0 .289-.046.555-.14.796a1.836 1.836 0 0 1-.393.622 1.78 1.78 0 0 1-.61.406 2.09 2.09 0 0 1-.79.144c-.289 0-.552-.048-.789-.144a1.8 1.8 0 0 1-.612-.406 1.805 1.805 0 0 1-.396-.622 2.197 2.197 0 0 1-.14-.796c0-.285.047-.549.14-.79.093-.242.225-.45.396-.623.171-.174.375-.31.612-.407.237-.097.5-.146.79-.146.287 0 .55.05.79.146.237.098.44.233.61.407.167.174.3.381.393.622.093.242.14.506.14.791M147.589 53.743a.558.558 0 0 1 .106-.12.22.22 0 0 1 .146-.054h.418v3.851h-.563v-2.678a4.308 4.308 0 0 1 .031-.526 2.34 2.34 0 0 1-.21.43l-1.778 2.599a.443.443 0 0 1-.103.12.22.22 0 0 1-.147.055h-.42v-3.851h.565v2.678c0 .079-.003.16-.006.246-.004.085-.011.176-.024.272a2.043 2.043 0 0 1 .209-.421l1.776-2.6zM152.55 53.569v.464h-1.25v3.387h-.561v-3.387h-1.253v-.464zM156.189 53.569v.45h-1.855v1.24h1.495v.435h-1.495v1.275h1.857l-.002.45h-2.42v-3.85zM160.561 53.569v3.85h-.565v-3.415h-1.255c-.024.492-.06.92-.104 1.28a8.085 8.085 0 0 1-.156.929c-.06.255-.13.464-.208.626a1.325 1.325 0 0 1-.256.38.737.737 0 0 1-.3.188 1.12 1.12 0 0 1-.337.05.753.753 0 0 1-.237-.028c-.055-.018-.082-.046-.082-.082v-.35h.193a.59.59 0 0 0 .212-.041.501.501 0 0 0 .202-.164c.065-.082.128-.2.186-.354.058-.154.11-.358.16-.613.047-.253.088-.564.12-.934.035-.367.061-.809.08-1.322h2.347zM162.75 55.654v1.325h.738c.15 0 .276-.016.38-.049a.68.68 0 0 0 .257-.138.526.526 0 0 0 .145-.211.75.75 0 0 0 .047-.27.78.78 0 0 0-.046-.277.485.485 0 0 0-.145-.207.659.659 0 0 0-.255-.128 1.362 1.362 0 0 0-.38-.045h-.741zm0-2.085v1.646h.742c.239 0 .446.025.62.077.174.051.317.125.43.218a.852.852 0 0 1 .25.33 1.207 1.207 0 0 1-.011.898 1.014 1.014 0 0 1-.27.367 1.238 1.238 0 0 1-.435.233 1.926 1.926 0 0 1-.588.082h-1.3v-3.851h.562zM168.899 56.604c.03 0 .057.012.08.034l.225.242c-.161.185-.356.328-.585.43-.23.102-.506.153-.827.153-.283 0-.54-.049-.77-.145a1.677 1.677 0 0 1-.587-.405 1.81 1.81 0 0 1-.377-.624 2.317 2.317 0 0 1-.132-.796c0-.29.046-.556.139-.797a1.778 1.778 0 0 1 .998-1.026c.236-.096.495-.144.778-.144.278 0 .525.045.74.135.215.09.402.208.562.356l-.185.258a.18.18 0 0 1-.045.044.13.13 0 0 1-.072.018.206.206 0 0 1-.12-.052 1.769 1.769 0 0 0-.184-.113 1.348 1.348 0 0 0-.281-.115 1.476 1.476 0 0 0-.418-.051c-.196 0-.375.034-.54.102a1.21 1.21 0 0 0-.424.293c-.119.127-.21.282-.275.467a1.87 1.87 0 0 0-.099.625c0 .236.035.447.103.632.068.185.162.342.281.469.118.126.258.224.42.29.162.068.336.1.52.1.115 0 .217-.006.308-.02.092-.012.175-.033.252-.06a.989.989 0 0 0 .217-.104c.068-.043.135-.094.202-.153a.22.22 0 0 1 .044-.031.117.117 0 0 1 .052-.012M173.11 53.569v.464h-1.25v3.387h-.561v-3.387h-1.253v-.464zM174.89 55.676v1.303h.829c.15 0 .276-.016.381-.05a.693.693 0 0 0 .26-.142.542.542 0 0 0 .147-.213.738.738 0 0 0 .048-.27.561.561 0 0 0-.207-.459c-.137-.114-.348-.17-.63-.17h-.828zm0-.392h.679c.145 0 .271-.016.379-.046a.763.763 0 0 0 .266-.129.524.524 0 0 0 .156-.2.66.66 0 0 0 .052-.264c0-.222-.068-.385-.203-.486-.136-.104-.344-.156-.625-.156h-.704v1.281zm-.561 2.136v-3.851h1.265c.243 0 .452.023.627.07.174.046.317.114.43.2a.775.775 0 0 1 .249.318c.054.125.08.265.08.42a.798.798 0 0 1-.18.511c-.06.075-.136.142-.225.203-.091.06-.197.108-.319.146.28.055.494.157.639.305.144.147.215.34.215.574 0 .165-.03.316-.092.45a.94.94 0 0 1-.269.348 1.287 1.287 0 0 1-.435.225c-.172.054-.368.08-.588.08h-1.397zM180.935 53.569v.45h-1.854v1.24h1.495v.435h-1.495v1.275h1.857l-.003.45h-2.42v-3.85z"/>
    </g>
</svg>
