<svg xmlns="http://www.w3.org/2000/svg" width="188" height="63" viewBox="0 0 188 63">
    <g fill="none" fill-rule="evenodd">
        <path fill="#000" d="M0 31.083h18.133V49.61H0z"/>
        <path fill="#DCAC49" d="M18.133.206h30.221v30.877H18.133z"/>
        <path fill="#000" d="M65.482 49.753l.885-18.666h4.154l5.115 9.274 5.192-9.274h4.116l.884 18.666h-4.307l-.5-12.104-4.27 7.663h-2.346l-4.23-7.623-.539 12.064h-4.154M101.559 41.225l-1.346-.078a30.84 30.84 0 0 0-2.077-.079c-.744 0-1.372.085-1.885.256-.513.17-.93.393-1.25.668a2.41 2.41 0 0 0-.692.943 2.99 2.99 0 0 0-.212 1.12c0 .838.276 1.487.827 1.945.551.458 1.302.688 2.25.688.616 0 1.186-.092 1.712-.276a4.717 4.717 0 0 0 1.384-.746c.398-.315.712-.681.943-1.1.23-.42.346-.865.346-1.336v-2.005zm.115 8.528l-.115-1.73c-.488.604-1.23 1.14-2.23 1.612-1 .471-2.091.707-3.27.707a7.525 7.525 0 0 1-2.25-.354 5.934 5.934 0 0 1-2.038-1.1c-.603-.497-1.09-1.133-1.462-1.906-.372-.772-.558-1.696-.558-2.77 0-2.122.724-3.76 2.173-4.912 1.449-1.153 3.39-1.73 5.827-1.73a40.387 40.387 0 0 1 2.385.079l1.423.08v-.433c0-.943-.353-1.677-1.058-2.2-.705-.525-1.711-.787-3.019-.787-1.129 0-2.083.171-2.865.511-.783.34-1.469.707-2.058 1.1l-2.077-3.143c.666-.524 1.615-1.042 2.846-1.552 1.23-.511 2.743-.767 4.539-.767 1.332 0 2.506.17 3.519.511 1.012.34 1.852.812 2.52 1.415a5.77 5.77 0 0 1 1.499 2.141c.333.826.5 1.723.5 2.692v12.536h-4.23zM123.597 35.213h-8v14.54h-4.539V31.087h12.539v4.126M144.826 31.087v18.666h-4.538v-7.428h-8v7.428h-4.538V31.087h4.538v7.27h8v-7.27h4.538M154.403 31.087v12.26l8.73-12.26h4v18.666h-4.345V37.217l-8.885 12.536h-3.846V31.087h4.346M177.287 49.753v-14.54h-6v-4.126h16.539v4.126h-6v14.54h-4.539M65.94 60.09v1.405h.86c.154 0 .287-.018.396-.054a.732.732 0 0 0 .269-.152.587.587 0 0 0 .154-.23.829.829 0 0 0 .05-.292.614.614 0 0 0-.216-.494c-.143-.122-.36-.182-.653-.182h-.86zm0-.421h.704c.151 0 .282-.017.394-.05a.776.776 0 0 0 .275-.138.562.562 0 0 0 .163-.217.72.72 0 0 0 .054-.283c0-.24-.07-.414-.211-.525-.14-.11-.357-.166-.65-.166h-.73v1.379zm-.583 2.3v-4.147h1.313c.253 0 .47.025.65.075.182.05.33.122.447.215a.847.847 0 0 1 .26.342c.055.136.083.287.083.455 0 .1-.016.197-.047.29a.863.863 0 0 1-.14.26c-.062.08-.14.152-.235.217a1.255 1.255 0 0 1-.33.157c.292.06.513.17.663.329.15.158.224.365.224.62 0 .177-.031.338-.096.484-.064.145-.157.27-.28.374a1.317 1.317 0 0 1-.45.243 1.978 1.978 0 0 1-.61.086h-1.452zM70.322 60.426h1.48l-.614-1.633a4.107 4.107 0 0 1-.127-.405c-.021.081-.042.156-.063.226-.02.069-.041.13-.062.182l-.614 1.63zm2.657 1.543h-.453a.197.197 0 0 1-.198-.141l-.365-.974h-1.802l-.365.974a.23.23 0 0 1-.072.098.19.19 0 0 1-.126.043h-.45l1.618-4.147h.591l1.622 4.147zM79.25 61.97h-5.086v-4.148h.586v3.68h1.657v-3.68h.586v3.68h1.67v-3.68h.588v4.147M86.213 61.97h-.586v-3.68h-1.986v3.68h-.585v-4.148h3.157v4.147M88.487 59.96h.637c.153 0 .288-.02.406-.062a.828.828 0 0 0 .296-.173.72.72 0 0 0 .18-.267.943.943 0 0 0 .06-.344c0-.13-.02-.245-.058-.346a.67.67 0 0 0-.175-.259.786.786 0 0 0-.295-.163 1.367 1.367 0 0 0-.414-.056h-.637v1.67zm0 .475v1.534h-.583v-4.147h1.22c.258 0 .483.03.675.092.19.062.35.149.475.262.125.113.22.248.281.407.063.16.094.336.094.53 0 .195-.033.373-.1.534-.065.16-.163.3-.29.418a1.33 1.33 0 0 1-.477.273c-.19.064-.41.097-.658.097h-.637zM95.172 59.894c0-.248-.033-.472-.098-.67a1.417 1.417 0 0 0-.285-.505 1.237 1.237 0 0 0-.446-.316 1.487 1.487 0 0 0-.582-.11c-.216 0-.41.036-.585.11a1.234 1.234 0 0 0-.447.316 1.428 1.428 0 0 0-.285.504 2.09 2.09 0 0 0-.1.671c0 .25.033.475.1.674.067.198.162.366.285.503.124.136.273.241.447.315.175.073.37.11.585.11.215 0 .409-.037.582-.11.174-.074.322-.179.446-.315.123-.137.218-.305.285-.503.065-.199.098-.423.098-.674zm.597 0c0 .31-.048.595-.146.856-.097.26-.233.483-.408.67a1.832 1.832 0 0 1-.634.437c-.247.104-.52.156-.82.156-.3 0-.573-.052-.82-.156a1.87 1.87 0 0 1-1.046-1.107 2.424 2.424 0 0 1-.146-.856c0-.308.049-.592.146-.853a1.884 1.884 0 0 1 1.047-1.108c.246-.105.519-.158.819-.158.3 0 .573.053.82.158.247.105.459.251.634.438s.311.41.408.67c.098.26.146.545.146.853zM97.795 60.09v1.405h.86c.154 0 .287-.018.396-.054a.73.73 0 0 0 .269-.152.587.587 0 0 0 .154-.23.829.829 0 0 0 .05-.292.614.614 0 0 0-.216-.494c-.143-.122-.36-.182-.653-.182h-.86zm0-.421h.704a1.4 1.4 0 0 0 .394-.05.773.773 0 0 0 .275-.138.56.56 0 0 0 .163-.217.723.723 0 0 0 .054-.283c0-.24-.07-.414-.21-.525-.142-.11-.358-.166-.65-.166h-.73v1.379zm-.583 2.3v-4.147h1.313c.253 0 .47.025.65.075.181.05.33.122.447.215a.849.849 0 0 1 .26.342c.055.136.083.287.083.455a.868.868 0 0 1-.187.55c-.062.08-.14.152-.235.217a1.252 1.252 0 0 1-.33.157c.291.06.513.17.663.329.15.158.225.365.225.62 0 .177-.033.338-.097.484-.064.145-.157.27-.28.374a1.317 1.317 0 0 1-.45.243 1.979 1.979 0 0 1-.61.086h-1.452zM102.177 60.426h1.48l-.614-1.633a3.945 3.945 0 0 1-.127-.405c-.021.081-.042.156-.063.226-.02.069-.041.13-.062.182l-.614 1.63zm2.656 1.543h-.452a.196.196 0 0 1-.126-.039.222.222 0 0 1-.072-.102l-.365-.974h-1.802l-.365.974a.231.231 0 0 1-.072.098.191.191 0 0 1-.126.043h-.45l1.618-4.147h.591l1.621 4.147zM107.694 57.272c.075 0 .14-.008.192-.024a.267.267 0 0 0 .127-.081.346.346 0 0 0 .07-.149c.014-.062.02-.138.02-.228h.315c.038 0 .066.016.086.05.02.034.03.071.03.112a.51.51 0 0 1-.223.445c-.15.104-.355.156-.617.156s-.468-.052-.617-.156a.51.51 0 0 1-.223-.445c0-.041.01-.078.03-.112a.095.095 0 0 1 .085-.05h.315c0 .09.007.166.02.228a.344.344 0 0 0 .07.149.267.267 0 0 0 .126.08.652.652 0 0 0 .194.025zm.942.738a.568.568 0 0 1 .109-.13.222.222 0 0 1 .151-.058h.436v4.147h-.586v-2.884c0-.085.002-.174.006-.268a3.04 3.04 0 0 1 .028-.299 3.327 3.327 0 0 1-.218.463l-1.847 2.8a.49.49 0 0 1-.108.13.226.226 0 0 1-.153.058h-.435v-4.147h.585v2.884c0 .085-.001.173-.005.265-.004.091-.012.189-.026.293.032-.09.068-.174.107-.25.038-.076.075-.144.111-.204l1.845-2.8zM112.305 58.29c-.023.46-.055.866-.096 1.215-.042.35-.09.654-.146.912a4.38 4.38 0 0 1-.185.65c-.068.176-.142.32-.22.434h1.951V58.29h-1.304zm1.89-.468v3.68h.66v1.297a.167.167 0 0 1-.053.127.189.189 0 0 1-.135.05h-.348v-1.007h-3.225v.83a.168.168 0 0 1-.052.127.19.19 0 0 1-.135.05h-.348V61.5h.422a.576.576 0 0 0 .173-.14c.056-.065.11-.157.164-.276.052-.12.102-.27.148-.452.046-.183.089-.405.128-.668.038-.263.071-.571.099-.924a27.7 27.7 0 0 0 .063-1.22h2.439zM118.685 57.822v.485h-1.927v1.336h1.553v.468h-1.553v1.373h1.93l-.003.485h-2.513v-4.147h2.513M120.699 59.96h.636c.153 0 .288-.02.406-.062a.824.824 0 0 0 .296-.173.72.72 0 0 0 .18-.267.939.939 0 0 0 .06-.344c0-.13-.019-.245-.058-.346a.67.67 0 0 0-.175-.259.784.784 0 0 0-.294-.163 1.366 1.366 0 0 0-.415-.056h-.636v1.67zm0 .475v1.534h-.583v-4.147h1.22c.258 0 .482.03.674.092.191.062.35.149.475.262.126.113.22.248.282.407.062.16.093.336.093.53 0 .195-.033.373-.099.534-.066.16-.163.3-.291.418a1.33 1.33 0 0 1-.477.273c-.19.064-.409.097-.658.097h-.636zM126.905 60.09v1.405h.86c.155 0 .287-.018.396-.054a.73.73 0 0 0 .27-.152.587.587 0 0 0 .153-.23.829.829 0 0 0 .05-.292.614.614 0 0 0-.215-.494c-.143-.122-.361-.182-.653-.182h-.86zm0-.421h.705c.15 0 .282-.017.393-.05a.773.773 0 0 0 .276-.138.56.56 0 0 0 .163-.217.723.723 0 0 0 .053-.283c0-.24-.07-.414-.21-.525-.14-.11-.357-.166-.65-.166h-.73v1.379zm-.582 2.3v-4.147h1.312c.253 0 .47.025.651.075.181.05.33.122.447.215a.85.85 0 0 1 .259.342c.056.136.083.287.083.455a.863.863 0 0 1-.187.55 1.03 1.03 0 0 1-.234.217 1.252 1.252 0 0 1-.331.157c.292.06.513.17.663.329.15.158.225.365.225.62 0 .177-.032.338-.096.484-.064.145-.158.27-.28.374a1.317 1.317 0 0 1-.451.243 1.979 1.979 0 0 1-.61.086h-1.451zM135.624 61.09c.033 0 .06.013.085.038l.233.26a1.714 1.714 0 0 1-.607.463c-.239.11-.525.165-.859.165a1.98 1.98 0 0 1-.8-.156 1.758 1.758 0 0 1-.61-.437 1.958 1.958 0 0 1-.39-.67 2.576 2.576 0 0 1-.138-.859c0-.312.048-.598.144-.858.097-.26.232-.483.408-.67.175-.186.385-.33.63-.435a2.04 2.04 0 0 1 .807-.156c.289 0 .545.049.768.145.224.096.418.224.584.384l-.192.278a.19.19 0 0 1-.047.048.13.13 0 0 1-.075.018c-.035 0-.078-.018-.126-.055a1.474 1.474 0 0 0-.482-.245 1.466 1.466 0 0 0-.433-.055c-.204 0-.39.036-.561.11-.171.073-.318.178-.44.315a1.439 1.439 0 0 0-.286.503 2.078 2.078 0 0 0-.102.673c0 .254.035.481.106.68.07.2.168.368.292.505.123.137.269.241.437.314.167.072.348.108.54.108.119 0 .225-.007.32-.022.094-.014.181-.036.261-.065.08-.028.155-.066.225-.112.07-.047.14-.101.21-.165a.255.255 0 0 1 .046-.033.108.108 0 0 1 .052-.013M139.998 57.822v.5H138.7v3.647h-.583v-3.647h-1.301v-.5h3.182M141.848 59.96h.637c.153 0 .288-.02.406-.062a.825.825 0 0 0 .296-.173.72.72 0 0 0 .18-.267.939.939 0 0 0 .06-.344c0-.13-.02-.245-.058-.346a.667.667 0 0 0-.175-.259.786.786 0 0 0-.295-.163 1.367 1.367 0 0 0-.414-.056h-.637v1.67zm0 .475v1.534h-.582v-4.147h1.219c.258 0 .483.03.675.092.191.062.35.149.475.262.125.113.22.248.281.407.063.16.094.336.094.53 0 .195-.033.373-.1.534-.065.16-.162.3-.29.418a1.33 1.33 0 0 1-.477.273c-.19.064-.409.097-.658.097h-.637zM148.533 59.894c0-.248-.033-.472-.099-.67a1.414 1.414 0 0 0-.284-.505 1.238 1.238 0 0 0-.446-.316 1.487 1.487 0 0 0-.582-.11c-.215 0-.41.036-.585.11a1.234 1.234 0 0 0-.447.316 1.428 1.428 0 0 0-.285.504 2.09 2.09 0 0 0-.1.671c0 .25.033.475.1.674.067.198.162.366.285.503.124.136.273.241.447.315.175.073.37.11.585.11.215 0 .409-.037.582-.11.174-.074.322-.179.446-.315a1.4 1.4 0 0 0 .284-.503c.066-.199.1-.423.1-.674zm.597 0c0 .31-.048.595-.145.856-.098.26-.234.483-.41.67a1.836 1.836 0 0 1-.633.437c-.247.104-.52.156-.82.156-.3 0-.573-.052-.82-.156a1.869 1.869 0 0 1-1.046-1.107 2.428 2.428 0 0 1-.146-.856c0-.308.049-.592.146-.853a1.883 1.883 0 0 1 1.047-1.108c.246-.105.519-.158.819-.158.3 0 .573.053.82.158.247.105.458.251.634.438.175.187.311.41.409.67.097.26.145.545.145.853zM153.19 58.01a.578.578 0 0 1 .109-.13.222.222 0 0 1 .151-.058h.436v4.147h-.586v-2.884c0-.085.002-.174.006-.268.004-.093.013-.193.028-.299-.034.093-.07.177-.107.254a3.227 3.227 0 0 1-.11.209l-1.848 2.8a.498.498 0 0 1-.108.13.227.227 0 0 1-.152.058h-.436v-4.147h.586v2.884c0 .085-.002.173-.006.265-.004.091-.012.189-.025.293.032-.09.067-.174.106-.25.038-.076.076-.144.111-.204l1.845-2.8M158.341 57.822v.5h-1.298v3.647h-.583v-3.647h-1.301v-.5h3.182M162.121 57.822v.485h-1.926v1.336h1.553v.468h-1.553v1.373h1.93l-.004.485h-2.512v-4.147h2.512M166.662 57.822v4.147h-.586v-3.68h-1.304c-.026.53-.062.99-.107 1.381-.046.39-.1.723-.163.999a3.46 3.46 0 0 1-.216.675c-.082.174-.17.31-.266.409a.775.775 0 0 1-.312.202 1.12 1.12 0 0 1-.597.025c-.056-.02-.084-.05-.084-.089v-.378h.2a.588.588 0 0 0 .22-.044.517.517 0 0 0 .21-.176 1.46 1.46 0 0 0 .193-.382c.06-.165.115-.385.165-.659.05-.273.093-.608.128-1.005.035-.397.061-.872.08-1.425h2.439M168.936 60.068v1.427h.767c.155 0 .286-.017.395-.053a.715.715 0 0 0 .266-.149.57.57 0 0 0 .15-.227.84.84 0 0 0 .049-.29.89.89 0 0 0-.047-.3.527.527 0 0 0-.15-.222.686.686 0 0 0-.266-.139 1.417 1.417 0 0 0-.394-.047h-.77zm0-2.246v1.772h.77c.249 0 .464.028.645.083.18.056.33.134.447.235.117.1.203.219.258.356.056.138.084.288.084.45 0 .19-.032.363-.096.517a1.069 1.069 0 0 1-.28.395 1.268 1.268 0 0 1-.451.251 1.947 1.947 0 0 1-.61.088h-1.35v-4.147h.583zM175.321 61.09c.033 0 .06.013.085.038l.232.26a1.715 1.715 0 0 1-.606.463c-.239.11-.525.165-.859.165a1.98 1.98 0 0 1-.8-.156 1.757 1.757 0 0 1-.61-.437 1.958 1.958 0 0 1-.39-.67 2.576 2.576 0 0 1-.138-.859c0-.312.048-.598.144-.858.097-.26.232-.483.408-.67.175-.186.385-.33.63-.435a2.04 2.04 0 0 1 .807-.156c.288 0 .544.049.768.145.224.096.418.224.584.384l-.192.278a.19.19 0 0 1-.047.048.13.13 0 0 1-.075.018c-.036 0-.078-.018-.126-.055a1.47 1.47 0 0 0-.482-.245 1.465 1.465 0 0 0-.433-.055c-.204 0-.39.036-.561.11-.171.073-.318.178-.44.315a1.445 1.445 0 0 0-.286.503 2.078 2.078 0 0 0-.102.673c0 .254.035.481.106.68.07.2.168.368.291.505.124.137.27.241.438.314.167.072.348.108.54.108.119 0 .225-.007.32-.022.094-.014.181-.036.261-.065a1.06 1.06 0 0 0 .225-.112c.07-.047.14-.101.21-.165a.254.254 0 0 1 .046-.033.108.108 0 0 1 .052-.013M179.695 57.822v.5h-1.298v3.647h-.583v-3.647h-1.302v-.5h3.183M181.545 60.09v1.405h.86c.155 0 .287-.018.396-.054a.732.732 0 0 0 .27-.152.587.587 0 0 0 .153-.23.829.829 0 0 0 .05-.292.614.614 0 0 0-.215-.494c-.144-.122-.361-.182-.654-.182h-.86zm0-.421h.705a1.4 1.4 0 0 0 .393-.05.773.773 0 0 0 .276-.138.562.562 0 0 0 .163-.217.727.727 0 0 0 .053-.283c0-.24-.07-.414-.21-.525-.141-.11-.357-.166-.65-.166h-.73v1.379zm-.582 2.3v-4.147h1.312c.253 0 .47.025.65.075.182.05.331.122.448.215a.849.849 0 0 1 .259.342c.056.136.083.287.083.455a.864.864 0 0 1-.187.55c-.062.08-.14.152-.234.217a1.248 1.248 0 0 1-.331.157c.292.06.513.17.663.329.15.158.225.365.225.62 0 .177-.032.338-.096.484a1.03 1.03 0 0 1-.28.374 1.32 1.32 0 0 1-.451.243 1.979 1.979 0 0 1-.61.086h-1.451zM187.823 57.822v.485h-1.927v1.336h1.554v.468h-1.554v1.373h1.93l-.003.485h-2.512v-4.147h2.512"/>
    </g>
</svg>
