<svg xmlns="http://www.w3.org/2000/svg" width="40" height="50" viewBox="0 0 40 50">
    <g fill="#E9AF31" fill-rule="evenodd">
        <path d="M36.62 5.32a.363.363 0 0 0 .548 0l2.528-2.55a.367.367 0 0 0 .06-.393.37.37 0 0 0-.335-.215h-.907V.366A.364.364 0 0 0 38.15 0h-2.513a.365.365 0 0 0-.365.366v1.796h-.906a.367.367 0 0 0-.274.609l2.528 2.548zM23.933 22.874c-1.045-1.165-2.077-2.467-3.006-3.638-.439-.554-.858-1.081-1.25-1.56l-.03-.036c.575-1.636.903-2.975.977-3.98.186-2.562-.1-4.212-.874-5.044a1.924 1.924 0 0 0-2.046-.51c-.53.177-1.245.652-1.655 1.906-.61 1.87-.314 5.182 1.42 7.921-.774 2.027-1.852 4.356-3.044 6.573-2.27.795-4.078 1.841-5.377 3.11-1.696 1.656-2.385 3.3-1.892 4.508.304.75 1.007 1.196 1.88 1.196.607 0 1.264-.22 1.9-.634 1.607-1.05 3.704-4.549 4.829-6.576 2.327-.726 4.625-1.024 5.793-1.136a38.897 38.897 0 0 1 1.557-.12c2.044 2.158 3.716 3.296 5.256 3.58.31.058.62.087.923.087 1.255 0 2.292-.5 2.776-1.34.365-.632.358-1.371-.02-2.027-.855-1.48-3.434-2.294-7.262-2.294-.276 0-.56.005-.855.014zM9.871 31.058c-.304.198-.616.317-.836.317a.377.377 0 0 1-.086-.009c-.039-.194.1-1.032 1.458-2.36.637-.622 1.444-1.191 2.399-1.695-1.205 1.94-2.29 3.325-2.935 3.747zm8.026-20.442c.142-.434.317-.63.427-.666.003 0 .005-.002.007-.003.106.12.554.799.353 3.573-.035.484-.152 1.096-.35 1.822-.65-1.67-.828-3.527-.437-4.726zM21.37 23.04c-1.035.1-2.61.305-4.368.72a61.442 61.442 0 0 0 1.84-4.018l.56.704c.636.802 1.35 1.703 2.091 2.583l-.123.011zm8.994 3.088c.029.05.028.07.02.083-.08.142-.45.367-1.093.367-.18 0-.37-.018-.568-.055-.802-.148-1.738-.703-2.853-1.692 3.026.145 4.249.874 4.494 1.297z"/>
        <path d="M27.95 0H2.794A2.795 2.795 0 0 0 0 2.795v44.41A2.796 2.796 0 0 0 2.794 50h33.541a2.793 2.793 0 0 0 2.794-2.795V11.18L27.95 0zm0 3.952l7.228 7.228H27.95V3.952zm8.386 43.253H2.794V2.795h22.361v8.385a2.794 2.794 0 0 0 2.794 2.795h8.386v33.23z"/>
        <path d="M15.039 36.567a2.037 2.037 0 0 0-.813-.435c-.308-.088-.748-.132-1.308-.132h-1.86c-.355 0-.621.081-.794.243-.175.163-.264.428-.264.785v5.518c0 .32.08.57.236.744a.81.81 0 0 0 .63.268c.248 0 .457-.09.62-.27.16-.175.242-.428.242-.752V40.65h1.19c.918 0 1.624-.2 2.095-.597.48-.4.724-.994.724-1.764 0-.358-.059-.686-.176-.975a1.971 1.971 0 0 0-.522-.746zm-1.202 2.307a.858.858 0 0 1-.455.302 2.808 2.808 0 0 1-.815.1h-.838v-1.91h.838c.755 0 1.06.151 1.182.274.163.173.242.395.242.677 0 .232-.052.42-.154.557zM22.23 36.684a2.473 2.473 0 0 0-1.014-.543 5.272 5.272 0 0 0-1.3-.141h-1.889c-.35 0-.61.084-.776.25-.167.167-.251.428-.251.777v5.25c0 .245.022.442.066.6.05.18.16.321.323.419.157.094.375.14.668.14h1.89c.334 0 .64-.022.907-.065.274-.045.533-.123.771-.231.24-.11.463-.257.666-.44.254-.233.466-.501.629-.798a3.64 3.64 0 0 0 .36-.998c.077-.362.116-.768.116-1.206-.001-1.337-.394-2.352-1.166-3.014zm-1.263 5.02a1.044 1.044 0 0 1-.335.194 1.634 1.634 0 0 1-.391.09 6.36 6.36 0 0 1-.554.019h-.96v-4.581h.819c.428 0 .795.046 1.092.138.277.084.516.29.71.61.199.329.3.838.3 1.515 0 .955-.229 1.633-.68 2.015zM28.446 36h-3.418c-.228 0-.412.034-.564.103a.713.713 0 0 0-.358.356 1.332 1.332 0 0 0-.106.569v5.508c0 .331.081.586.24.757a.818.818 0 0 0 .627.265.82.82 0 0 0 .622-.261c.159-.172.24-.428.24-.761v-2.22h2.248c.252 0 .45-.06.585-.181a.636.636 0 0 0 .214-.5.644.644 0 0 0-.21-.5c-.134-.123-.333-.185-.589-.185h-2.249v-1.553h2.718c.266 0 .471-.064.61-.19a.66.66 0 0 0 .213-.51.66.66 0 0 0-.214-.507c-.14-.127-.344-.19-.61-.19z"/>
    </g>
</svg>
